<svg xmlns="http://www.w3.org/2000/svg" width="200" height="200" viewBox="0 0 50 50">
  <circle cx="25" cy="25" r="25" fill="#fff"/>
  <path d="M36.47 36.07c-.45.73-1.4.96-2.13.51-5.84-3.57-13.19-4.37-21.84-2.39-.83.19-1.66-.33-1.85-1.16-.19-.83.33-1.66 1.16-1.85 9.46-2.17 17.57-1.23 24.08 2.76.73.45.96 1.4.58 2.13zm3.06-6.82c-.56.91-1.76 1.2-2.67.64-6.68-4.11-16.87-5.3-24.77-2.9-1.01.31-2.07-.26-2.38-1.27-.31-1.01.26-2.07 1.27-2.38 9.02-2.74 20.22-1.41 27.88 3.31.91.56 1.2 1.76.67 2.6zm.26-7.1c-8.01-4.76-21.24-5.2-28.89-2.87-1.23.37-2.53-.32-2.9-1.55-.37-1.23.32-2.53 1.55-2.9 8.8-2.67 23.42-2.15 32.67 3.32 1.1.66 1.47 2.09.81 3.19-.66 1.1-2.09 1.47-3.24.81z" fill="#000"/>
</svg>
